<?xml version="1.0" encoding="utf-8"?>
<!-- Generator: Adobe Illustrator 25.2.1, SVG Export Plug-In . SVG Version: 6.00 Build 0)  -->
<svg version="1.1" id="Livello_1" xmlns="http://www.w3.org/2000/svg" xmlns:xlink="http://www.w3.org/1999/xlink" x="0px" y="0px"
	 viewBox="0 0 1077 201" style="enable-background:new 0 0 1077 201;" xml:space="preserve">
<style type="text/css">
	.st0{fill-rule:evenodd;clip-rule:evenodd;fill:#034991;}
	.st1{clip-path:url(#SVGID_2_);}
	.st2{fill:#696777;}
</style>
<g>
	<g>
		<g>
			<g>
				<g>
					<polygon class="st0" points="55.2,2.3 55.2,26.1 91.3,26.1 91.3,131.2 121.1,131.2 121.1,26.1 157.2,26.1 157.2,2.3 					"/>
					<polygon class="st0" points="170.4,1.4 170.4,131.3 253,131.3 253,107.5 200.4,107.5 200.4,78.3 240.7,78.3 240.7,56.3 
						200.4,56.3 200.4,25.2 253,25.2 253,1.4 					"/>
					<path class="st0" d="M296.2,24.2h12.1c7.8,0,13.5,1.6,17.2,4.8c3.7,3.2,5.6,7.7,5.6,13.4c0,2.9-0.4,5.5-1.3,8
						c-0.8,2.5-2.2,4.6-4,6.5c-1.9,1.9-4.2,3.3-7.1,4.3c-2.9,1-6.4,1.6-10.4,1.6h-12.1V24.2z M303.8,83.4c2.3,0,4.1,0.4,5.4,1.1
						c1.3,0.7,2.4,1.9,3.3,3.6l21.5,37.7c2.2,3.8,5.8,5.7,10.8,5.7H372l-27.5-45.2c-1.3-2.1-2.8-3.9-4.6-5.4
						c-1.8-1.5-3.6-2.7-5.6-3.7c4.2-1.6,7.9-3.6,11.1-6.1c3.2-2.5,5.9-5.3,8.2-8.5c2.2-3.2,3.9-6.6,5-10.3c1.1-3.7,1.7-7.7,1.7-11.9
						c0-5.5-1-10.6-2.9-15.3c-1.9-4.7-4.9-8.7-9.1-12.2c-4.2-3.4-9.6-6.1-16.2-8C325.6,3,317.6,2,308.3,2h-42.1v129.5h30V83.4H303.8
						z"/>
					<path class="st0" d="M408,24.2h12.1c7.8,0,13.5,1.6,17.2,4.8c3.7,3.2,5.6,7.7,5.6,13.4c0,2.9-0.4,5.5-1.3,8
						c-0.8,2.5-2.2,4.6-4,6.5c-1.9,1.9-4.2,3.3-7.1,4.3c-2.9,1-6.4,1.6-10.4,1.6H408V24.2z M415.6,83.4c2.3,0,4.1,0.4,5.4,1.1
						c1.3,0.7,2.4,1.9,3.3,3.6l21.5,37.7c2.2,3.8,5.8,5.7,10.8,5.7h27.2l-27.5-45.2c-1.3-2.1-2.8-3.9-4.6-5.4
						c-1.8-1.5-3.6-2.7-5.6-3.7c4.2-1.6,7.9-3.6,11.1-6.1c3.2-2.5,5.9-5.3,8.2-8.5c2.2-3.2,3.9-6.6,5-10.3c1.1-3.7,1.7-7.7,1.7-11.9
						c0-5.5-1-10.6-2.9-15.3c-1.9-4.7-4.9-8.7-9.1-12.2c-4.2-3.4-9.6-6.1-16.2-8C437.4,3,429.4,2,420.1,2H378v129.5h30V83.4H415.6z"
						/>
					<path class="st0" d="M545.7,46.9c0.9-2.2,1.8-4.8,2.8-7.8c1-3,1.9-6.3,2.9-9.9c1,3.5,2,6.7,3,9.7c1,3,1.9,5.6,2.7,7.8
						l11.8,34.8h-35L545.7,46.9z M566.7,2.2h-30.5l-49.7,129h23.2c2.5,0,4.5-0.7,6.2-2c1.7-1.3,2.8-2.9,3.5-4.6l7.6-22.7h48.8
						l7.6,22.7c0.6,1.9,1.8,3.5,3.5,4.7c1.7,1.2,3.8,1.8,6.4,1.8h23.1L566.7,2.2z"/>
					<path class="st0" d="M641,1.4h-15.6v129.9h26.2V62.7c0-1.9-0.1-3.9-0.2-6c-0.1-2.1-0.3-4.3-0.4-6.6l60.5,76.2
						c1.5,1.9,3,3.2,4.6,3.9c1.6,0.7,3.5,1.1,5.8,1.1h15.5V1.4h-26.2v67.7c0,2,0.1,4.2,0.2,6.5c0.1,2.3,0.3,4.7,0.5,7.1L650.9,6
						c-0.8-1-1.6-1.8-2.2-2.4c-0.7-0.6-1.3-1-2-1.4c-0.7-0.3-1.5-0.5-2.4-0.7C643.4,1.5,642.3,1.4,641,1.4z"/>
					<path class="st0" d="M899.4,131.2h26.9l51.4-129h-24.1c-2.5,0-4.6,0.7-6.3,2c-1.7,1.3-2.9,2.8-3.4,4.5l-24.6,69.4
						c-1.1,3-2.1,6.3-3.2,9.9c-1.1,3.6-2.1,7.3-2.9,11.2c-1-3.9-2.1-7.6-3.2-11.2c-1.1-3.5-2.3-6.9-3.4-9.9L881.8,8.7
						c-0.7-1.9-1.9-3.5-3.5-4.7c-1.7-1.2-3.8-1.8-6.3-1.8h-24L899.4,131.2z"/>
					<path class="st0" d="M1004.5,46.9c0.9-2.2,1.8-4.8,2.8-7.8c1-3,2-6.3,2.9-9.9c1,3.5,2,6.7,3,9.7c1,3,1.9,5.6,2.7,7.8l11.8,34.8
						h-35L1004.5,46.9z M1025.5,2.2H995l-49.7,129h23.2c2.5,0,4.5-0.7,6.2-2c1.7-1.3,2.8-2.9,3.4-4.6l7.6-22.7h48.8l7.6,22.7
						c0.6,1.9,1.8,3.5,3.5,4.7c1.7,1.2,3.8,1.8,6.4,1.8h23.1L1025.5,2.2z"/>
				</g>
				<path class="st0" d="M1.9,20.2c0-10.5,8.5-19,19.1-19c10.5,0,19,8.5,19,19c0,10.5-8.5,19-19,19C10.4,39.2,1.9,30.7,1.9,20.2z"/>
				<path class="st0" d="M1.9,113.3c0-10.5,8.5-19,19.1-19c10.5,0,19,8.5,19,19c0,10.5-8.5,19-19,19C10.4,132.3,1.9,123.8,1.9,113.3
					z"/>
				<path class="st0" d="M1.9,66.7c0-10.5,8.5-19,19.1-19c10.5,0,19,8.5,19,19c0,10.5-8.5,19-19,19C10.4,85.8,1.9,77.3,1.9,66.7z"/>
			</g>
		</g>
	</g>
	<g>
		<defs>
			<path id="SVGID_1_" d="M788.3,0.2c-13.8,0-26.6,4.2-37.1,11.5v32.2c7.6-12.6,21.4-21,37.1-21c23.9,0,43.3,19.4,43.3,43.3
				c0,23.9-19.4,43.3-43.3,43.3c-15.8,0-29.6-8.4-37.1-21v32.2c10.6,7.2,23.4,11.4,37.1,11.4c36.4,0,65.9-29.5,65.9-65.9
				C854.3,29.7,824.7,0.2,788.3,0.2z"/>
		</defs>
		<clipPath id="SVGID_2_">
			<use xlink:href="#SVGID_1_"  style="overflow:visible;"/>
		</clipPath>
		<g class="st1">
			<g>
				
					<image style="overflow:visible;" width="132.1" height="132.1" xlink:href="839ECF9F.png"  transform="matrix(1 0 0 1 721.9691 8.559861e-02)"/>
			</g>
		</g>
	</g>
	<g>
		<g>
			<path class="st2" d="M128.1,200.3h-5.6v-41.2h5.6V200.3z"/>
			<path class="st2" d="M144.5,159.3c0.2,0.1,0.5,0.4,0.8,0.8l23.9,31.1c-0.1-0.5-0.1-1-0.1-1.5c0-0.5,0-0.9,0-1.4v-29.2h4.9v41.2
				h-2.8c-0.4,0-0.8-0.1-1.1-0.2c-0.3-0.2-0.6-0.4-0.9-0.8l-23.9-31c0,0.5,0.1,0.9,0.1,1.4c0,0.5,0,0.9,0,1.3v29.4h-4.9v-41.2h2.9
				C143.9,159.1,144.3,159.2,144.5,159.3z"/>
			<path class="st2" d="M190,159.3c0.2,0.1,0.5,0.4,0.8,0.8l23.9,31.1c-0.1-0.5-0.1-1-0.1-1.5c0-0.5,0-0.9,0-1.4v-29.2h4.9v41.2
				h-2.8c-0.4,0-0.8-0.1-1.1-0.2c-0.3-0.2-0.6-0.4-0.9-0.8l-23.9-31c0,0.5,0.1,0.9,0.1,1.4c0,0.5,0,0.9,0,1.3v29.4H186v-41.2h2.9
				C189.4,159.1,189.7,159.2,190,159.3z"/>
			<path class="st2" d="M269.9,179.7c0,3.1-0.5,5.9-1.5,8.5c-1,2.6-2.4,4.8-4.1,6.7c-1.8,1.9-3.9,3.3-6.4,4.3
				c-2.5,1-5.3,1.5-8.3,1.5c-3,0-5.8-0.5-8.3-1.5c-2.5-1-4.6-2.5-6.4-4.3c-1.8-1.9-3.2-4.1-4.1-6.7c-1-2.6-1.5-5.4-1.5-8.5
				c0-3.1,0.5-5.9,1.5-8.5c1-2.6,2.4-4.8,4.1-6.7c1.8-1.9,3.9-3.3,6.4-4.4c2.5-1,5.3-1.6,8.3-1.6c3,0,5.8,0.5,8.3,1.6
				c2.5,1,4.6,2.5,6.4,4.4c1.8,1.9,3.2,4.1,4.1,6.7C269.4,173.8,269.9,176.6,269.9,179.7z M264.2,179.7c0-2.5-0.3-4.8-1-6.8
				c-0.7-2-1.7-3.7-2.9-5.1c-1.3-1.4-2.8-2.5-4.6-3.2c-1.8-0.7-3.8-1.1-6-1.1c-2.2,0-4.2,0.4-6,1.1c-1.8,0.7-3.3,1.8-4.6,3.2
				c-1.3,1.4-2.3,3.1-2.9,5.1c-0.7,2-1,4.3-1,6.8c0,2.5,0.3,4.8,1,6.8c0.7,2,1.7,3.7,2.9,5.1c1.3,1.4,2.8,2.5,4.6,3.2
				c1.8,0.7,3.8,1.1,6,1.1c2.2,0,4.2-0.4,6-1.1c1.8-0.7,3.3-1.8,4.6-3.2c1.3-1.4,2.2-3.1,2.9-5.1
				C263.8,184.5,264.2,182.3,264.2,179.7z"/>
			<path class="st2" d="M273,159.1h4.5c0.5,0,0.9,0.1,1.2,0.4c0.3,0.2,0.5,0.6,0.7,0.9l11.7,29.1c0.3,0.7,0.5,1.4,0.7,2.1
				c0.2,0.8,0.4,1.6,0.6,2.4c0.2-0.8,0.4-1.6,0.6-2.4c0.2-0.8,0.4-1.5,0.7-2.1l11.6-29.1c0.1-0.3,0.4-0.6,0.7-0.9
				c0.3-0.3,0.7-0.4,1.2-0.4h4.5l-16.8,41.2h-5L273,159.1z"/>
			<path class="st2" d="M349.3,200.3H345c-0.5,0-0.9-0.1-1.2-0.4c-0.3-0.2-0.5-0.6-0.7-0.9l-3.9-10h-18.5l-3.9,10
				c-0.1,0.3-0.4,0.7-0.7,0.9c-0.3,0.3-0.7,0.4-1.2,0.4h-4.3l16.5-41.2h5.7L349.3,200.3z M322.3,185h15.4l-6.5-16.8
				c-0.4-1-0.8-2.3-1.2-3.9c-0.2,0.8-0.4,1.5-0.6,2.2c-0.2,0.7-0.4,1.2-0.6,1.7L322.3,185z"/>
			<path class="st2" d="M379.9,159.1v4.7h-13.3v36.5H361v-36.5h-13.4v-4.7H379.9z"/>
			<path class="st2" d="M393.7,200.3h-5.6v-41.2h5.6V200.3z"/>
			<path class="st2" d="M444.5,179.7c0,3.1-0.5,5.9-1.5,8.5c-1,2.6-2.4,4.8-4.1,6.7c-1.8,1.9-3.9,3.3-6.4,4.3
				c-2.5,1-5.3,1.5-8.3,1.5c-3,0-5.8-0.5-8.3-1.5c-2.5-1-4.6-2.5-6.4-4.3c-1.8-1.9-3.2-4.1-4.1-6.7c-1-2.6-1.5-5.4-1.5-8.5
				c0-3.1,0.5-5.9,1.5-8.5c1-2.6,2.4-4.8,4.1-6.7c1.8-1.9,3.9-3.3,6.4-4.4c2.5-1,5.3-1.6,8.3-1.6c3,0,5.8,0.5,8.3,1.6
				c2.5,1,4.6,2.5,6.4,4.4c1.8,1.9,3.2,4.1,4.1,6.7C444,173.8,444.5,176.6,444.5,179.7z M438.8,179.7c0-2.5-0.3-4.8-1-6.8
				c-0.7-2-1.7-3.7-2.9-5.1c-1.3-1.4-2.8-2.5-4.6-3.2c-1.8-0.7-3.8-1.1-6-1.1c-2.2,0-4.2,0.4-6,1.1c-1.8,0.7-3.3,1.8-4.6,3.2
				c-1.3,1.4-2.3,3.1-2.9,5.1c-0.7,2-1,4.3-1,6.8c0,2.5,0.3,4.8,1,6.8c0.7,2,1.7,3.7,2.9,5.1c1.3,1.4,2.8,2.5,4.6,3.2
				c1.8,0.7,3.8,1.1,6,1.1c2.2,0,4.2-0.4,6-1.1c1.8-0.7,3.3-1.8,4.6-3.2c1.3-1.4,2.2-3.1,2.9-5.1
				C438.5,184.5,438.8,182.3,438.8,179.7z"/>
			<path class="st2" d="M458.2,159.3c0.2,0.1,0.5,0.4,0.8,0.8l23.9,31.1c-0.1-0.5-0.1-1-0.1-1.5c0-0.5,0-0.9,0-1.4v-29.2h4.9v41.2
				h-2.8c-0.4,0-0.8-0.1-1.1-0.2c-0.3-0.2-0.6-0.4-0.9-0.8l-23.9-31c0,0.5,0.1,0.9,0.1,1.4c0,0.5,0,0.9,0,1.3v29.4h-4.9v-41.2h2.9
				C457.5,159.1,457.9,159.2,458.2,159.3z"/>
			<path class="st2" d="M520.8,165.5c-0.2,0.3-0.4,0.5-0.5,0.6c-0.2,0.1-0.4,0.2-0.7,0.2c-0.3,0-0.7-0.2-1.1-0.5
				c-0.4-0.3-1-0.7-1.6-1.1c-0.7-0.4-1.5-0.8-2.4-1.1c-0.9-0.3-2.1-0.5-3.4-0.5c-1.2,0-2.3,0.2-3.3,0.5c-1,0.3-1.8,0.8-2.4,1.4
				c-0.6,0.6-1.1,1.3-1.5,2c-0.3,0.8-0.5,1.6-0.5,2.5c0,1.2,0.3,2.1,0.8,2.9c0.6,0.8,1.3,1.4,2.2,1.9c0.9,0.5,2,1,3.2,1.4
				c1.2,0.4,2.4,0.8,3.6,1.2c1.2,0.4,2.4,0.9,3.6,1.4c1.2,0.5,2.2,1.2,3.2,2c0.9,0.8,1.7,1.8,2.2,3c0.6,1.2,0.8,2.6,0.8,4.3
				c0,1.8-0.3,3.5-0.9,5.1c-0.6,1.6-1.5,3-2.7,4.1c-1.2,1.2-2.6,2.1-4.3,2.8s-3.7,1-5.9,1c-2.7,0-5.1-0.5-7.3-1.5
				c-2.2-1-4.1-2.3-5.6-3.9l1.6-2.6c0.2-0.2,0.3-0.4,0.6-0.5c0.2-0.1,0.5-0.2,0.7-0.2c0.4,0,0.9,0.2,1.4,0.6
				c0.5,0.4,1.2,0.9,1.9,1.4c0.8,0.5,1.7,1,2.8,1.4c1.1,0.4,2.4,0.6,4,0.6c1.3,0,2.5-0.2,3.5-0.5c1-0.4,1.9-0.9,2.6-1.5
				c0.7-0.7,1.3-1.5,1.7-2.4c0.4-0.9,0.6-1.9,0.6-3.1c0-1.2-0.3-2.3-0.8-3.1c-0.6-0.8-1.3-1.5-2.2-2c-0.9-0.5-2-1-3.2-1.4
				c-1.2-0.4-2.4-0.8-3.6-1.2c-1.2-0.4-2.4-0.8-3.6-1.4c-1.2-0.5-2.2-1.2-3.2-2c-0.9-0.8-1.7-1.9-2.2-3.1c-0.6-1.2-0.8-2.8-0.8-4.6
				c0-1.5,0.3-2.9,0.8-4.2c0.6-1.4,1.4-2.6,2.5-3.6c1.1-1.1,2.4-1.9,4-2.5c1.6-0.6,3.4-0.9,5.5-0.9c2.3,0,4.4,0.4,6.3,1.1
				c1.9,0.7,3.6,1.8,5,3.2L520.8,165.5z"/>
			<path class="st2" d="M571.8,159.1v4.5H552v14.4H569v4.5H552v17.7h-5.6v-41.2H571.8z"/>
			<path class="st2" d="M618.1,179.7c0,3.1-0.5,5.9-1.5,8.5c-1,2.6-2.4,4.8-4.1,6.7c-1.8,1.9-3.9,3.3-6.4,4.3
				c-2.5,1-5.3,1.5-8.3,1.5c-3,0-5.8-0.5-8.3-1.5c-2.5-1-4.6-2.5-6.4-4.3c-1.8-1.9-3.2-4.1-4.1-6.7c-1-2.6-1.5-5.4-1.5-8.5
				c0-3.1,0.5-5.9,1.5-8.5c1-2.6,2.4-4.8,4.1-6.7c1.8-1.9,3.9-3.3,6.4-4.4c2.5-1,5.3-1.6,8.3-1.6c3,0,5.8,0.5,8.3,1.6
				c2.5,1,4.6,2.5,6.4,4.4c1.8,1.9,3.2,4.1,4.1,6.7C617.6,173.8,618.1,176.6,618.1,179.7z M612.4,179.7c0-2.5-0.3-4.8-1-6.8
				c-0.7-2-1.7-3.7-2.9-5.1c-1.3-1.4-2.8-2.5-4.6-3.2c-1.8-0.7-3.8-1.1-6-1.1c-2.2,0-4.2,0.4-6,1.1c-1.8,0.7-3.3,1.8-4.6,3.2
				c-1.3,1.4-2.3,3.1-2.9,5.1c-0.7,2-1,4.3-1,6.8c0,2.5,0.3,4.8,1,6.8c0.7,2,1.7,3.7,2.9,5.1c1.3,1.4,2.8,2.5,4.6,3.2
				c1.8,0.7,3.8,1.1,6,1.1c2.2,0,4.2-0.4,6-1.1c1.8-0.7,3.3-1.8,4.6-3.2c1.3-1.4,2.2-3.1,2.9-5.1C612,184.5,612.4,182.3,612.4,179.7
				z"/>
			<path class="st2" d="M633.6,183.1v17.2H628v-41.2h11.7c2.6,0,4.9,0.3,6.8,0.8c1.9,0.5,3.5,1.3,4.7,2.3c1.2,1,2.2,2.2,2.7,3.6
				c0.6,1.4,0.9,3,0.9,4.7c0,1.5-0.2,2.8-0.7,4.1c-0.5,1.3-1.1,2.4-2,3.4c-0.9,1-1.9,1.9-3.2,2.6c-1.3,0.7-2.7,1.2-4.3,1.6
				c0.7,0.4,1.3,1,1.8,1.8l12,16.4h-4.9c-1,0-1.8-0.4-2.2-1.2l-10.7-14.7c-0.3-0.5-0.7-0.8-1.1-1c-0.4-0.2-1-0.3-1.7-0.3H633.6z
				 M633.6,179.1h5.8c1.6,0,3.1-0.2,4.3-0.6c1.2-0.4,2.3-0.9,3.1-1.7c0.8-0.7,1.5-1.6,1.9-2.6c0.4-1,0.6-2.1,0.6-3.3
				c0-2.5-0.8-4.3-2.4-5.6c-1.6-1.2-4-1.9-7.2-1.9h-6.1V179.1z"/>
			<path class="st2" d="M696.8,195.9c1.7,0,3.2-0.3,4.6-0.9c1.3-0.6,2.5-1.4,3.4-2.4c0.9-1,1.6-2.3,2.1-3.7c0.5-1.4,0.7-3,0.7-4.7
				v-25.1h5.6v25.1c0,2.4-0.4,4.6-1.1,6.6c-0.8,2-1.8,3.8-3.3,5.3c-1.4,1.5-3.1,2.7-5.2,3.5c-2,0.8-4.3,1.3-6.8,1.3
				c-2.5,0-4.8-0.4-6.8-1.3c-2-0.8-3.8-2-5.2-3.5s-2.5-3.2-3.3-5.3c-0.8-2-1.1-4.2-1.1-6.6v-25.1h5.6v25c0,1.7,0.2,3.3,0.7,4.7
				c0.5,1.4,1.2,2.7,2.1,3.7c0.9,1,2.1,1.8,3.4,2.4S695.1,195.9,696.8,195.9z"/>
			<path class="st2" d="M752.9,159.1v4.7h-13.3v36.5H734v-36.5h-13.4v-4.7H752.9z"/>
			<path class="st2" d="M766.6,200.3H761v-41.2h5.6V200.3z"/>
			<path class="st2" d="M784.7,195.6h17.8v4.7h-23.4v-41.2h5.6V195.6z"/>
			<path class="st2" d="M816.4,200.3h-5.6v-41.2h5.6V200.3z"/>
			<path class="st2" d="M856.7,159.1v4.7h-13.3v36.5h-5.6v-36.5h-13.4v-4.7H856.7z"/>
			<path class="st2" d="M870.5,200.3h-5.6v-41.2h5.6V200.3z"/>
			<path class="st2" d="M908.3,159.1v4.5h-19.8v13.7h16v4.4h-16v14.1h19.8v4.5h-25.4v-41.2H908.3z"/>
			<path class="st2" d="M939.9,165.5c-0.2,0.3-0.4,0.5-0.5,0.6c-0.2,0.1-0.4,0.2-0.7,0.2c-0.3,0-0.7-0.2-1.1-0.5
				c-0.4-0.3-1-0.7-1.6-1.1c-0.7-0.4-1.5-0.8-2.4-1.1c-0.9-0.3-2.1-0.5-3.4-0.5c-1.2,0-2.4,0.2-3.3,0.5c-1,0.3-1.8,0.8-2.4,1.4
				c-0.6,0.6-1.1,1.3-1.5,2c-0.3,0.8-0.5,1.6-0.5,2.5c0,1.2,0.3,2.1,0.8,2.9c0.6,0.8,1.3,1.4,2.2,1.9c0.9,0.5,2,1,3.2,1.4
				c1.2,0.4,2.4,0.8,3.6,1.2c1.2,0.4,2.4,0.9,3.6,1.4c1.2,0.5,2.2,1.2,3.2,2c0.9,0.8,1.7,1.8,2.2,3c0.6,1.2,0.8,2.6,0.8,4.3
				c0,1.8-0.3,3.5-0.9,5.1c-0.6,1.6-1.5,3-2.7,4.1c-1.2,1.2-2.6,2.1-4.3,2.8s-3.7,1-5.9,1c-2.7,0-5.1-0.5-7.3-1.5
				c-2.2-1-4.1-2.3-5.6-3.9l1.6-2.6c0.2-0.2,0.3-0.4,0.6-0.5c0.2-0.1,0.5-0.2,0.7-0.2c0.4,0,0.9,0.2,1.4,0.6
				c0.5,0.4,1.2,0.9,1.9,1.4c0.8,0.5,1.7,1,2.8,1.4c1.1,0.4,2.4,0.6,4,0.6c1.3,0,2.5-0.2,3.5-0.5c1-0.4,1.9-0.9,2.6-1.5
				c0.7-0.7,1.3-1.5,1.7-2.4c0.4-0.9,0.6-1.9,0.6-3.1c0-1.2-0.3-2.3-0.8-3.1c-0.6-0.8-1.3-1.5-2.2-2c-0.9-0.5-2-1-3.2-1.4
				c-1.2-0.4-2.4-0.8-3.6-1.2c-1.2-0.4-2.4-0.8-3.6-1.4c-1.2-0.5-2.2-1.2-3.2-2c-0.9-0.8-1.7-1.9-2.2-3.1c-0.6-1.2-0.8-2.8-0.8-4.6
				c0-1.5,0.3-2.9,0.8-4.2c0.6-1.4,1.4-2.6,2.5-3.6c1.1-1.1,2.4-1.9,4-2.5c1.6-0.6,3.4-0.9,5.5-0.9c2.3,0,4.4,0.4,6.3,1.1
				c1.9,0.7,3.6,1.8,5,3.2L939.9,165.5z"/>
		</g>
	</g>
</g>
</svg>
